/* XPM */
static char *deffile_xpm[] = {
/* columns rows colors chars-per-pixel */
"16 16 50 1",
"p c #F2F3F2",
"> c #F7F7F5",
"% c #F7F7F6",
"c c #8C8E8A",
"i c #F0F0EE",
"y c #F0F0EF",
"e c #F0F0F0",
"o c #FFFFFF",
"1 c #F3F4F3",
"z c #E9E9EA",
"+ c #F8F8F7",
". c #8D8F8A",
"x c #ECEDEC",
"t c #F1F1F0",
", c #F6F5F4",
"w c #EFF1F0",
"8 c #EFF1F1",
"  c None",
"l c #EAEAEA",
"3 c #FEFDFE",
"j c #EDEEED",
"6 c #F2F2F1",
"& c #F7F6F5",
": c #F5F6F4",
"d c #EEEFEE",
"0 c #F3F3F1",
"5 c #F3F3F2",
"2 c #F3F3F3",
"X c #888A85",
"; c #F8F7F7",
"r c #F1F3F1",
"= c #F6F7F5",
"s c #F1F0EF",
"u c #EFF0EF",
"4 c #F4F4F2",
"- c #F4F4F3",
"* c #F7F8F7",
"g c #EDEDED",
"q c #F0F1F0",
"< c #F5F5F3",
"$ c #F5F5F4",
"f c #EEEEED",
"7 c #F1F2F0",
"a c #F1F2F1",
"9 c #F1F2F2",
"# c #F6F6F5",
"k c #ECEBEB",
"O c #8B8D88",
"h c #EFEFEE",
"@ c #FEFEFE",
/* pixels */
" .XXXXXXXXXXXX. ",
" XooooooooooooO ",
" Xo++++++++++@O ",
" Xo+##$##%%%+@O ",
" Xo+%%##&%%%+@O ",
" Xo++++*+++++@O ",
" Xo+++%==#$-#@O ",
" Xo+++*;;;%$:@O ",
" Xo+++##>,<123O ",
" Xo+$--456789@O ",
" Xo+$-406qwer@O ",
" Xo%#$156tyui@O ",
" Xo$$1pasydfg@O ",
" Xo-yhfjfklzx@O ",
" Xo@@@@@@@@@@oO ",
" .OOOOOOOOOOOOc "
};
