/* XPM */
static char *folder_closed_xpm[] = {
/* columns rows colors chars-per-pixel */
"16 16 41 1",
"O c #C8D9EC",
"6 c #ADC8E3",
"9 c #BCD1E6",
"3 c #244D8B",
"r c #B5CDE6",
"p c #86ACD5",
"# c #7CA1CD",
"1 c #C4D6E9",
"a c #95B5D9",
"q c #A9C5E2",
". c #204A87",
"4 c #2A528C",
"o c #A9BFDA",
"t c #B1CAE4",
"* c #28528D",
": c #5078AF",
"  c None",
"= c #85A4CC",
"2 c #224C88",
"; c #5E88BC",
"< c #C7D9EC",
"i c #A2C0DF",
"5 c #A7BEDA",
", c #ACC2DC",
"y c #AAC5E2",
"$ c #7BA1CD",
"@ c #9EBADA",
"X c #29528B",
"w c #BCD2E8",
"> c #2E5690",
"+ c #97B0D1",
"& c #224B88",
"8 c #C4D7EB",
"s c #9ABADD",
"e c #B8CFE7",
"- c #5F88BC",
"0 c #C0D4EA",
"% c #7896BE",
"d c #26508D",
"u c #8AAFD7",
"7 c #8FB3D9",
/* pixels */
"                ",
"  .....         ",
" XoOOOoX        ",
".+@#$#@%......&*",
".=-;;;:>,<<<<<12",
"32....456777778.",
"2900000q7777770.",
".w777777777777w.",
".e777777777777e.",
".r777777777777r.",
".t777777777777t.",
".yuuuuuuuuuuuuy.",
".ippppppppppppi.",
"&assssssssssssa2",
"d&............& ",
"                "
};
