/* XPM */
static char *folder_opened_xpm[] = {
/* columns rows colors chars-per-pixel */
"16 16 70 1",
"V c #94B1D3",
"Z c #7EA7D3",
"L c #83ABD5",
"P c #79A0CC",
"# c #29518C",
"e c #676965",
"8 c #767873",
"p c #FFFFFF",
"K c #729FCF",
"M c #B5CDE6",
"d c #60625D",
"i c #6F716C",
"g c #F8F8F7",
"u c #81A2CA",
"D c #9FBDDE",
"X c #204A87",
"o c #2A528D",
"G c #8CB1D8",
"> c #ACC3DF",
"  c None",
"t c #61635E",
"f c #F9F9F8",
"0 c #70726E",
"v c #F9F9F9",
"; c #214B88",
"k c #2B538D",
"C c #99BADC",
"N c #A6C0DC",
"z c #224C88",
"$ c #224C89",
"x c #4F79B1",
"y c #656E72",
"3 c #A6BDDA",
"B c #315891",
", c #779CCA",
"w c #6A6C68",
"S c #90B0D4",
"7 c #797B76",
"H c #78A3D1",
". c #234D89",
"= c #9DB6D5",
"@ c #A7BEDA",
"O c #A7BEDB",
"2 c #AAC2DE",
"* c #85A9D2",
"c c #555753",
"r c #646662",
"9 c #737571",
"F c #9EBDDE",
"1 c #94B2D6",
"j c #C3CDDA",
"& c #A8C2DF",
"l c #244E8A",
"% c #9EB7D5",
"n c #335A92",
"J c #8DB1D8",
"s c #6A8FBE",
"6 c #7B7D78",
"4 c #97B3D5",
"5 c #7E878C",
"a c #565854",
"b c #C4CEDC",
": c #254F8B",
"h c #F6F6F5",
"q c #6D6F6B",
"+ c #C7D8EC",
"m c #98B4D5",
"A c #AFC8E4",
"- c #2B548E",
"< c #769CCA",
/* pixels */
"                ",
"  .XXX.         ",
" oO+++@#        ",
"$%&***&=-XXXXX;:",
"X>,<<<,12>>>>>3;",
"X4567890qwerty4X",
"XuippppppppppauX",
"XsdpfghjkXXXXXlz",
"XxcpvgbnmMMMMMNX",
"z.XXXXBVCZZZZZAX",
"XSDDDDFGHHHHHHDX",
"XJKKKKKKKKKKKKJX",
"XLKKKKKKKKKKKKLX",
"XPLLLLLLLLLLLLPX",
" ;XXXXXXXXXXXX; ",
"                "
};
