/* XPM */
static char * folder_opened_xpm[] = {
"16 16 31 1",
" 	c None",
".	c #376485",
"+	c #8DA0B9",
"@	c #7F99B4",
"#	c #718BA7",
"$	c #467291",
"%	c #B3BFD1",
"&	c #BBC4D6",
"*	c #C2CBDB",
"=	c #CAD6E1",
"-	c #D6DFE7",
";	c #DCE2EA",
">	c #E4E9ED",
",	c #EAEDF3",
"'	c #F1F4F7",
")	c #F5F6F7",
"!	c #F8F9FA",
"~	c #FDFDFE",
"{	c #7A90AC",
"]	c #A8B6CA",
"^	c #D1D9E5",
"/	c #6A89A2",
"(	c #A2B3C5",
"_	c #94A5BD",
":	c #9BACC2",
"<	c #597B9A",
"[	c #7F97B0",
"}	c #215579",
"|	c #65839D",
"1	c #305F81",
"2	c #547B99",
"                ",
".....           ",
".+++@.          ",
".++++#........  ",
".++++++++++++.  ",
".++++++++++++.  ",
".+$$$$$$$$$$$$$$",
".+$%&*=-;>,')!~$",
".{.]%&*=^;>,')^/",
"..+(]%&*=^;>,'/ ",
"..+_:]%&*=^;>,/ ",
".<[+_:]%&*=^;=/ ",
"}|{[+_:]%&*=^/  ",
"1$$$$$$$$$$$$2  ",
"                ",
"                "};
