/* XPM */
static char * folder_closed_xpm[] = {
"16 16 22 1",
" 	c None",
".	c #547897",
"+	c #D1D9E5",
"@	c #B3BFD1",
"#	c #BECAD9",
"$	c #CAD2DC",
"%	c #D2D9E0",
"&	c #D6DFE7",
"*	c #E1E6EE",
"=	c #E5EAF1",
"-	c #EEF1F3",
";	c #F5F6F7",
">	c #F8F9FA",
",	c #FAFCFE",
"'	c #ADBACE",
")	c #A2B3C5",
"!	c #9BACC2",
"~	c #8DA0B9",
"{	c #EAEDF3",
"]	c #7F99B4",
"^	c #7A90AC",
"/	c #718BA7",
"                ",
" .....          ",
" .++++.         ",
" .............  ",
" .@#$%&*=-;>,.  ",
" .@#$%&*=-;>,.  ",
" .'@#$+&*=-;>.  ",
" .)'@#$+&*=-;.  ",
" .!)'@#$+&*=-.  ",
" .~!)'@#$+&*{.  ",
" .]~!)'@#$+&*.  ",
" .^]~!)'@#$+&.  ",
" ./^]~!)'@#$+.  ",
" .............  ",
"                ",
"                "};
