/* XPM */
static char *folder_opened_xpm[] = {
/* columns rows colors chars-per-pixel */
"16 16 43 1",
"w c #94B1D3",
"r c #7EA7D3",
"f c #83ABD5",
"g c #79A0CC",
"# c #29518C",
"d c #729FCF",
"9 c #B5CDE6",
"1 c #81A2CA",
"u c #9FBDDE",
"X c #204A87",
"o c #2A528D",
"p c #8CB1D8",
"> c #ACC3DF",
"  c None",
"; c #214B88",
"3 c #2B538D",
"e c #99BADC",
"0 c #A6C0DC",
"5 c #224C88",
"$ c #224C89",
"6 c #4F79B1",
", c #A6BDDA",
"q c #315891",
"y c #90B0D4",
"a c #78A3D1",
". c #234D89",
"= c #9DB6D5",
"@ c #A7BEDA",
"O c #A7BEDB",
"* c #AAC2DE",
"i c #9EBDDE",
"& c #A8C2DF",
"4 c #244E8A",
"% c #9EB7D5",
"7 c #335A92",
"s c #8DB1D8",
"2 c #6A8FBE",
"< c #97B3D5",
": c #254F8B",
"+ c #C7D8EC",
"8 c #98B4D5",
"t c #AFC8E4",
"- c #2B548E",
/* pixels */
"                ",
"  .XXX.         ",
" oO+++@#        ",
"$%&****=-XXXXX;:",
"X>********>>>>,;",
"X<<<<<<<<<<<<<<X",
"X11111111111111X",
"X22222223XXXXX45",
"X66666678999990X",
"5.XXXXqwerrrrrtX",
"XyuuuuipaaaaaauX",
"XsddddddddddddsX",
"XfddddddddddddfX",
"XgffffffffffffgX",
" ;XXXXXXXXXXXX; ",
"                "
};
