/* XPM */
static char *folder_opened_xpm[] = {
/* columns rows colors chars-per-pixel */
"16 16 69 1",
"H c #537196",
"V c #6A9ACD",
"v c #6A9ACE",
"X c #676965",
"s c #729FCF",
"r c #8BB0D7",
"c c #6B9BCD",
"J c #455D79",
"* c #A6A6A6",
"< c #595B57",
"l c #6E9CCE",
"e c #B1CAE4",
"6 c #8CB1D8",
"  c None",
"; c #61635F",
"L c #3F6086",
"= c #A7A7A7",
"3 c #B9CFE7",
"A c #6598CD",
"m c #94B6DB",
"y c #88AED6",
"F c #6395CC",
"n c #6899CD",
"d c #9CBBDD",
"p c #7CA6D2",
"- c #A8A8A8",
"O c #C6C6C5",
"@ c #6A6C68",
"B c #6B9ACD",
"h c #709ECE",
"> c #3465A4",
"9 c #6D85A4",
", c #436B9D",
"N c #89AFD7",
"7 c #7C8EA4",
"o c #CECECE",
"D c #6496CC",
"+ c #636561",
"x c #6C9BCE",
"4 c #4E7AB1",
"u c #85ACD5",
"# c #C0C0BF",
"S c #6597CC",
"% c #555753",
"f c #58769B",
"g c #9EBDDE",
"$ c #969795",
": c #5D5F5B",
"C c #6898CD",
"z c #6D9CCE",
"w c #A6C2E0",
"i c #81A9D4",
"Z c #6698CC",
"G c #9ABADE",
"j c #709DCF",
"1 c #AEC7E3",
"K c #3E6089",
"8 c #5C84B7",
"q c #89AED6",
"& c #C9C9C9",
"b c #6999CD",
"k c #6E9DCE",
". c #6D6F6B",
"5 c #A7C3E0",
"M c #A9ABA9",
"0 c #7D9DC6",
"a c #76A2D0",
"2 c #AFC8E3",
"t c #8AAFD7",
/* pixels */
" .....XX        ",
".ooooooO+       ",
"@#$$$$$$$%%%%%  ",
"X&*********=-%  ",
";#$$$$$$$$$$$%  ",
":&*********=-%  ",
":#$>>>>>>>>>>>>,",
"<&*>12222222223>",
"%#$456666666661>",
"%&7856666666661>",
"%#90566666666qw>",
"%&>er6rtyuipasd>",
"%#fghjklzxcvbnm>",
"%MNcBVbCZASDFGHJ",
"K>>>>>>>>>>>>>L ",
"                "
};
