/* XPM */
static char *folder_closed_xpm[] = {
/* columns rows colors chars-per-pixel */
"16 16 61 1",
"V c #537196",
"2 c #5F615D",
"c c #6A9ACD",
"g c #6A9ACE",
"X c #676965",
"7 c #8BB0D7",
"f c #6B9BCD",
"C c #455D79",
"5 c #3967A2",
"w c #7AA4D2",
"& c #A6A6A6",
"t c #98B9DC",
"a c #6E9CCE",
"e c #73A0CF",
": c #466D9C",
"1 c #8CB1D8",
"  c None",
"A c #3F6086",
"* c #A7A7A7",
"n c #6598CD",
"k c #94B6DB",
"6 c #ADC7E3",
"9 c #88AED6",
"N c #6395CC",
"j c #6899CD",
"> c #C6D8EB",
"= c #A8A8A8",
"O c #C6C6C5",
"x c #6B9ACD",
"i c #709ECE",
"; c #3465A4",
"z c #89AFD7",
"o c #CECECE",
"M c #6496CC",
"+ c #636561",
"- c #617A9A",
"d c #6C9BCE",
"q c #80A8D3",
"@ c #C0C0BF",
", c #BED2E8",
"m c #6597CC",
"$ c #555753",
"y c #58769B",
"# c #969795",
"v c #6898CD",
"s c #6D9CCE",
"4 c #A6C2E0",
"b c #6698CC",
"B c #9ABADE",
"p c #709DCF",
"< c #AEC7E3",
"Z c #3E6089",
"3 c #89AED6",
"% c #C9C9C9",
"h c #6999CD",
"r c #6E9DCE",
". c #6D6F6B",
"l c #A9ABA9",
"u c #9BBBDD",
"0 c #85ABD5",
"8 c #8AAFD7",
/* pixels */
" .....XX        ",
".ooooooO+       ",
".@#######$$$$$  ",
".%&&&&&&&&&*=$  ",
"X@-;;;;;;;;;;;;:",
"X%;>,,,,,,,,,,>;",
"X@;<1111111111<;",
"2%;<1111111111<;",
"$@;<1111111111<;",
"$%;<1111111111<;",
"$@;<11111111134;",
"$%56717890qwert;",
"$@yuiprasdfghjk;",
"$lzfxchvbnmMNBVC",
"Z;;;;;;;;;;;;;A ",
"                "
};
