/* XPM */
static char *removable_xpm[] = {
/* columns rows colors chars-per-pixel */
"16 16 101 2",
"K  c #F2F3F0",
"q  c #F2F3F1",
"r  c #F7F7F6",
"]  c #9B9D99",
"j  c #D7D9D5",
"7  c #EBECEA",
"*  c #FAFBFA",
"z  c #F0F0EF",
"$  c #FFFFFF",
"+. c #F3F4F2",
"=  c #F8F8F7",
"G  c #DDDEDB",
")  c #ECEDEA",
"f  c #ECEDEB",
"S  c #F1F1EF",
"p  c #F1F1F0",
"P  c #EFF1EE",
"F  c #E5E6E3",
"m  c #F4F5F3",
"   c None",
"2  c #F9F9F8",
"!  c #8E908B",
"O. c #E8EAE6",
"i  c #DEDFDC",
"4  c #F2F2F1",
"/  c #D7DBD4",
"|  c #BEC1BC",
"_  c #C3C5C0",
"v  c #D2D4CF",
"-  c #E6E7E5",
"b  c #F5F6F4",
"s  c #FAFAF9",
"<  c #FAFAFA",
"#. c #CBCDC8",
"c  c #DADCD7",
"h  c #DFE0DC",
"@. c #FDFEFD",
"A  c #F3F3F2",
"o  c #888A85",
";  c #979995",
" . c #D8DCD5",
"W  c #BFC2BC",
"}  c #8B8E88",
"e  c #FBFBFA",
"~  c #90928D",
"Q  c #D1D5CE",
".. c #D6D9D2",
"Z  c #E5E8E3",
"I  c #EAECE8",
"8  c #E0E1DF",
"@  c #EFF0EE",
"l  c #F4F4F2",
"t  c #F4F4F3",
"X  c #898B86",
"O  c #8E8F89",
"(  c #8E8F8A",
"o. c #DEE1DB",
"Y  c #D9DAD7",
"6  c #E8E9E6",
"^  c #555753",
"D  c #EDEDEB",
"a  c #F7F8F7",
"5  c #EDEDEC",
"9  c #8C8F89",
"1  c #FCFCFB",
"&  c #FCFCFC",
"C  c #CDCFCA",
"g  c #E6E6E4",
"M  c #F5F5F5",
"{  c #8A8C87",
"+  c #999B97",
".  c #8F908B",
"H  c #D5D7D2",
"V  c #D5D7D3",
"J  c #E4E6E3",
"y  c #E9EAE8",
"0  c #F8F9F7",
",  c #F8F9F8",
"N  c #EEEEED",
"w  c #FDFDFC",
":  c #8D908B",
"#  c #FDFDFD",
"X. c #D3D7CF",
"E  c #BABDB6",
"'  c #BFC1BC",
"k  c #ECEEEA",
"x  c #E2E3E0",
"B  c #E7E7E5",
"d  c #F6F6F4",
"3  c #F6F6F5",
"$. c #8B8D88",
"[  c #C7C9C3",
"R  c #C7C9C4",
"U  c #E0E3DF",
">  c #EAEBE9",
"L  c #F9FAF9",
"T  c #8E918C",
"%  c #FEFEFE",
"`  c #CFD1CC",
"n  c #E8EBE7",
"u  c #E3E4E1",
/* pixels */
"                                ",
"    . X o o o o o o o o X O     ",
"  + @ # $ $ % % # # & * = - ;   ",
": > , < $ # 1 < 2 3 4 5 6 7 8 9 ",
"X 0 q 2 $ w e 2 r t @ y u i p X ",
"o 0 @ a % w s = d 4 f g h j p o ",
"o r k 3 % 1 2 r l z y x c v @ o ",
"o b n m % 1 = M 4 N B i V C y o ",
"o m Z A % e r t S D F G H C J o ",
"o K L $ $ $ $ $ % 2 m P I U Y o ",
"T * R E E E E E E E E E E W Q ! ",
"~ $ E ^ ^ ^ ^ ^ ^ ^ ^ ^ ^ E / ( ",
"X ) _ ` ` ' ] ] ] ] ' ` ` [ 3 { ",
"} |  ...X.X.X.X.o.O.+.@.$ e #.} ",
"  $.X o o o o o o o o o o X $.  ",
"                                "
};
