/* XPM */
static char * removable_xpm[] = {
"16 16 23 1",
" 	c None",
".	c #8497A5",
"+	c #DFE0E2",
"@	c #D5D6D8",
"#	c #CFCFD0",
"$	c #C6C8CA",
"%	c #C3C3C4",
"&	c #BCBDBE",
"*	c #B7B7B8",
"=	c #ACAEB2",
"-	c #E7E7E7",
";	c #A6A8AD",
">	c #EBEBEC",
",	c #979BA0",
"'	c #9EA2A8",
")	c #DCE2EA",
"!	c #7A92A3",
"~	c #F5F6F7",
"{	c #8FB0C3",
"]	c #4C809F",
"^	c #4A7898",
"/	c #407598",
"(	c #FFFFFF",
"   .........    ",
"   .+@#$%&*=.   ",
"   .+@#$%&*=.   ",
"  .-+@#$%&*=;.  ",
"  .-+@#$%&*=;.  ",
" .>-+@#$%&*=;,. ",
" .>-+@#$%&*=;'. ",
".)>-+@#$%&*=;'!.",
".~>-+@#$%&*=;',.",
"{..............{",
"{~>-+@#$%&*====.",
"{#]]]]]^^^//;(;.",
"{###########;;;.",
" {{{{{{{{{{{{{{ ",
"                ",
"                "};
