/* XPM */
static char *removable_xpm[] = {
/* columns rows colors chars-per-pixel */
"16 16 31 1",
"$ c #CACACA",
"7 c #E8E8E8",
". c #6E706B",
"4 c #C3C3C1",
", c #F0F0F0",
"- c #FFFFFF",
"@ c #CBCBCB",
"& c #888887",
"3 c #8B8C89",
"% c #AEAEAC",
"o c #CCCCCC",
"  c None",
"8 c #F9F9F9",
"> c #E3E3E3",
"6 c #CDCDCD",
"q c #DCDCDC",
": c #EBEBEB",
"w c #D5D5D5",
"+ c #A1A1A1",
"# c #CECECE",
"0 c #DDDDDD",
"1 c #D6D6D6",
"; c #F4F4F4",
"O c #CFCFCF",
"X c #D0D0D0",
"9 c #929491",
"< c #C9C9C9",
"5 c #F6F6F6",
"2 c #757773",
"= c #FEFEFE",
"* c #ACACAB",
/* pixels */
"                ",
"................",
".XXXXXXXXXXXXXo.",
".O++++++++++++@.",
".O++++++++++++@.",
".#++++++++++++@.",
".#++++++++++++$.",
".#++++++++++++$.",
".%&&&&&&&&&&&&*.",
".=-------;;::>,.",
".#<<<<<<<<<<<<1.",
".#<23333333345$.",
".6<>>7777777890.",
".0qqqwwOOOOOOO$.",
"................",
"                "
};
