/* XPM */
static char *tlb_open_xpm[] = {
/* columns rows colors chars-per-pixel */
"16 16 69 1",
"H c #537196",
"V c #6A9ACD",
"v c #6A9ACE",
"* c #969992",
"X c #676965",
"; c #FFFFFF",
"s c #729FCF",
"r c #8BB0D7",
"c c #6B9BCD",
"J c #455D79",
"- c #A6A6A6",
"1 c #595B57",
"l c #6E9CCE",
"0 c #8CB1D8",
"< c #CCCCCA",
"  c None",
": c #61635F",
"L c #3F6086",
"A c #6598CD",
"m c #94B6DB",
"e c #ADC7E3",
"y c #88AED6",
"F c #6395CC",
"n c #6899CD",
"7 c #C6D8EB",
"d c #9CBBDD",
"p c #7CA6D2",
"O c #C6C6C5",
"@ c #6A6C68",
"B c #6B9ACD",
"h c #709ECE",
"5 c #3465A4",
"6 c #436B9D",
"N c #89AFD7",
"o c #CECECE",
"D c #6496CC",
"+ c #636561",
"4 c #617A9A",
"x c #6C9BCE",
"& c #A7A9A4",
"u c #85ACD5",
"# c #C0C0BF",
"8 c #BED2E8",
"S c #6597CC",
"3 c #555753",
"f c #58769B",
"$ c #969795",
", c #5D5F5B",
"> c #F5F5F4",
"C c #6898CD",
"z c #6D9CCE",
"w c #A6C2E0",
"i c #81A9D4",
"Z c #6698CC",
"G c #9ABADE",
"j c #709DCF",
"9 c #AEC7E3",
"K c #3E6089",
"q c #89AED6",
"= c #C9C9C9",
"2 c #D8D8D7",
"b c #6999CD",
"k c #6E9DCE",
". c #6D6F6B",
"% c #9A9C98",
"M c #A9ABA9",
"g c #9BBBDD",
"a c #76A2D0",
"t c #8AAFD7",
/* pixels */
" .....XX        ",
".ooooooO+       ",
"@#$$%&&&&&&&&&* ",
"X=--&;;;;;;;;;& ",
":#$$&;>>>>>>>;& ",
",=--&;><<<<<>;& ",
",#$$&;>>>>>>>;& ",
"1=--&;><<<2>>;& ",
"3#45555555555556",
"3=57888888888875",
"3#59000000000qw5",
"3=5er0rtyuipasd5",
"3#fghjklzxcvbnm5",
"3MNcBVbCZASDFGHJ",
"K5555555555555L ",
"                "
};
