/* XPM */
static char *tlb_physical_xpm[] = {
/* columns rows colors chars-per-pixel */
"16 16 28 1",
"& c #F7F7F6",
"9 c #8C8E8A",
"3 c #F0F0EF",
"1 c #F0F0F0",
"o c #FFFFFF",
"+ c #F8F8F7",
". c #8D8F8A",
"2 c #F1F1F0",
"< c #F1F1F1",
"  c None",
"> c #F2F2F1",
": c #F2F2F2",
"$ c #2E3192",
", c #F3F3F2",
"; c #F3F3F3",
"X c #888A85",
"% c #0072BC",
"8 c #ECECEB",
"7 c #ECECEC",
"- c #F4F4F3",
"5 c #EDEDED",
"# c #9B9B9B",
"* c #F5F5F4",
"6 c #EEEEED",
"= c #F6F6F5",
"O c #8B8D88",
"4 c #EFEFEE",
"@ c #FEFEFE",
/* pixels */
" .XXXXXXXXXXXX. ",
" XooooooooooooO ",
" Xo++++++++++@O ",
" Xo+##+$+%%%+@O ",
" Xo+##&$*%%%+@O ",
" Xo++++++++++@O ",
" Xo++++$&%%%=@O ",
" Xo++++$+%%%*@O ",
" Xo+++++&=*-;@O ",
" Xo+##-$:%%%>@O ",
" Xo+##,$<%%%1@O ",
" Xo&=*-2>2134@O ",
" Xo*-,>$1%%%5@O ",
" Xo-346$7%%%8@O ",
" Xo@@@@@@@@@@oO ",
" .OOOOOOOOOOOO9 "
};
