/* XPM */
static char *tlb_virtual_xpm[] = {
/* columns rows colors chars-per-pixel */
"16 15 3 1",
"  c #214279",
"X c #4377CD",
". c #C0C0C0",
/* pixels */
"                ",
" .............. ",
" .XXXX. .XXXXX. ",
" .XXXX...XXXXX. ",
" ...... ....... ",
" ........XXXXX. ",
" ........XXXXX. ",
" ...... ....... ",
" ........XXXXX. ",
" ........XXXXX. ",
" ...... ....... ",
" ........XXXXX. ",
" ........XXXXX. ",
" .............. ",
"                "
};
