/* XPM */
static char *tlb_up_xpm[] = {
/* columns rows colors chars-per-pixel */
"16 16 60 1",
"b c #58B883",
"i c #47AC73",
"v c #51B17B",
"& c #47A36F",
". c #20874A",
", c #4DB47B",
"N c #48AD74",
"C c #4DB17A",
"- c #5EB785",
"1 c #35A466",
"x c #5CBA86",
"  c None",
"g c #3FAC70",
": c #3C9C65",
"% c #21884B",
"$ c #21884C",
"6 c #4EB57D",
"k c #5FBB88",
"0 c #36A566",
"* c #69C090",
"u c #40AD70",
"3 c #4EA975",
"O c #22894D",
"Z c #45AB72",
"V c #54B781",
"q c #5BB583",
"= c #43AE73",
"+ c #51AA78",
"5 c #65BD8D",
"j c #2A8E52",
"4 c #34965D",
"y c #57B883",
"2 c #5EB685",
"e c #2D9257",
"c c #3FAB70",
"7 c #49B379",
"s c #21874B",
"M c #40AC6F",
"8 c #40AC70",
"< c #40AC71",
"z c #22884C",
"9 c #34A465",
"> c #67BF8F",
"p c #62B888",
"l c #56B37E",
"# c #5DB181",
"o c #4CA571",
"X c #20884B",
"t c #65BF8E",
"@ c #71C194",
"; c #56AD7C",
"B c #52B67F",
"h c #59B481",
"n c #4DAF78",
"r c #63BC8B",
"w c #48A570",
"f c #61BC8A",
"m c #55B781",
"a c #41A169",
"d c #268A4F",
/* pixels */
"                ",
"       .        ",
"      XoO       ",
"     X+@#$      ",
"    %&*=-;X     ",
"   %:>,<123X    ",
"  X4567890qwX   ",
"  erty7u9i-paX  ",
" ..sdf7g9hjs... ",
"    .k7g9lz     ",
"    .x7c9vs     ",
"    .b789ns     ",
"    .m7M9Ns     ",
"    .BVCZZ.     ",
"    .......     ",
"                "
};
