/* XPM */
static char *tlb_new_xpm[] = {
/* columns rows colors chars-per-pixel */
"16 16 146 2",
"G  c #E4DFA2",
"n. c #8C8E88",
"b. c #8C8E89",
"~  c #9B9D97",
"S  c #DCE0DA",
"6. c #E6E8E3",
"7. c #E6E8E4",
"$. c #FDF6C2",
"6  c #EBECE9",
"#  c #BFBA7D",
"g. c #FFFFFE",
"A  c #9EA19B",
"-  c #FFFFFF",
"q. c #949691",
"m  c #DFDEC8",
":  c #FBF3B1",
"D  c #DADDD6",
"M  c #EAE188",
"R  c #EAE189",
" . c #DFE1DC",
"+. c #E7E3B7",
"1. c #FDFCF4",
"&. c #979A94",
"v. c #8D8F89",
"c. c #8D8F8A",
"@. c #EAE4A6",
"8. c #E7E9E4",
"7  c #E7E9E5",
"u. c #ECEDEA",
"k. c #ECEDEB",
"{  c #D7CC66",
",. c #E5E6D8",
"o. c #E0E2D9",
"/  c #DBDED8",
"X. c #E0E2DD",
"9  c #E8E4B6",
"_  c #EBE291",
"   c None",
"+  c #A7AAA2",
"e  c #EDD504",
"x. c #8E908B",
"P  c #9D9F99",
"E  c #EDD507",
"0  c #EDD509",
"`  c #EDD50A",
"*. c #E3E6E1",
"d  c #FCFAE6",
"a  c #FCFAE7",
"r. c #E8EAE6",
"a. c #EDEEEB",
"3. c #969892",
"j. c #969893",
"4  c #A5A7A1",
"<. c #E6E7D8",
"I  c #DCDFD9",
"k  c #E1E3DD",
"h. c #8F918C",
"H  c #F2E258",
"o  c #A8ABA5",
"u  c #E4E4D2",
"[  c #EED60A",
"$  c #D9CB50",
"y  c #E4E7E1",
"U  c #DADCD6",
"B  c #FDFBE7",
"W  c #FDFBEA",
"c  c #FAE747",
"Q  c #FDFBEB",
";  c #FDFBEC",
"w  c #FDFBED",
"s. c #EEEFEC",
"3  c #F3DD22",
"=  c #EEEFED",
"*  c #F3DD23",
"t  c #FDFEFD",
"p. c #92958F",
"l  c #E2E1CA",
"n  c #DDE0D9",
"^  c #DDE0DA",
"N  c #F3E03E",
"=. c #E2E4DF",
"4. c #E7E8E4",
"m. c #90928E",
"y. c #EAECE9",
"Z  c #FBE84B",
"d. c #EFF0ED",
"L  c #FBE84D",
"f. c #EFF0EE",
"l. c #FEFFFE",
"1  c #EDD400",
"<  c #EDD401",
"Y  c #D9DDD3",
"q  c #EDD402",
"%  c #EAD62A",
"#. c #EBE4A6",
"x  c #EDD404",
"p  c #EDD405",
"-. c #E3E5E0",
";. c #E3E5E1",
"V  c #FCF9E6",
"K  c #F9E545",
"9. c #E8E9E5",
"&  c #F2DB1C",
">  c #F4E456",
".  c #AAADA6",
"i. c #91938E",
"2. c #96978F",
"v  c #A0A29C",
"C  c #F7E236",
"z  c #ECE285",
"2  c #F0D810",
"r  c #A3A6A0",
"}  c #999B96",
"O  c #A8AAA4",
">. c #E4E6DB",
".. c #DFE2DC",
":. c #E4E6DF",
"%. c #ABA884",
"j  c #E4E6E1",
"s  c #FDFAE6",
")  c #E2E0BB",
"f  c #FAE646",
"i  c #EAE294",
"e. c #E9EAE7",
"h  c #FDFDFD",
"]  c #F5E55E",
"'  c #F5E55F",
"(  c #DDDFD4",
"@  c #AEAF97",
"F  c #DBDCCD",
"X  c #A9ABA5",
"b  c #E0E3DC",
"8  c #E5E7DD",
"|  c #E0E3DD",
"5. c #E5E7E3",
"T  c #DEDDBC",
"t. c #EAEBE8",
",  c #EFD91F",
"z. c #EFEFEE",
"J  c #FEFEFC",
"w. c #FEFEFD",
"5  c #FEFEFE",
"0. c #93958F",
"O. c #E3E1C7",
"g  c #A2A49E",
"!  c #F9E74C",
/* pixels */
"    . X o O + @ # $ % & *       ",
"  X = - - - ; : > , < 1 2 3     ",
"  4 5 6 7 8 9 0 q 1 w w 1 < e   ",
"  r t 7 y u i p a s s s s d e f ",
"  g h j k l z x d s s s s d e c ",
"  v h b n m M N q B s s V < C Z ",
"  A h S D F G H x J d d a e K L ",
"  P h I U Y T R E W x x Q E !   ",
"  ~ h ^ / I ( ) _ ` ' ] [ {     ",
"  } h |  ...X.o.O.+.@.#.$.%.    ",
"  &.h *.=.-.-.;.:.>.,.<.1.2.    ",
"  3.t 4.5.6.7.4.7 7 8.9.h 0.    ",
"  q.w.e.r.e.t.t.y.6 6 u.5 i.    ",
"  p.5 u.u.a.s.= d.f.f.f.g.h.    ",
"  j.k.l.g.g.- - - - - - z.0.    ",
"    q.x.x.x.c.c.v.b.b.n.m.      "
};
