/* XPM */
static char *tlb_catalog_xpm[] = {
/* columns rows colors chars-per-pixel */
"16 15 12 1",
". c Black",
"O c #BFBF00",
"@ c #FFFFFF",
"+ c #808080",
"# c #00BFBF",
"* c #FF00FF",
"% c #FFFF00",
"& c #00FFFF",
"$ c #0000FF",
"X c #C0C0C0",
"  c None",
"o c #00FF00",
/* pixels */
"      ....      ",
"    .XoO+X@X.   ",
"   ##+oO+X@@@.  ",
"  X##$XX+X@@@X. ",
" .XX##+o+X@@X++ ",
" %&&X#$o+@@X+++.",
".oo%%&#+++X+++++",
".**OOO++@.++++++",
".XXXXX++@.OOO***",
".XXXXX@++$X%%ooo",
" XXXX@XXO+#X&&%.",
" .XX@@XXOo$#XX& ",
"  X@@XXXOo+##X. ",
"   @@XXXOoX$#.  ",
"    .XXXOoX+.   "
};
