/* XPM */
static char *tlb_catalog_xpm[] = {
/* columns rows colors chars-per-pixel */
"16 16 170 2",
"%. c #C5C6C8",
"q  c #CBDDD2",
"K  c #C0C2C9",
",  c #D9D9D9",
"X  c #938F8F",
"`  c #F7F7F5",
"k. c #F7F7F7",
"6  c #D6C6C6",
"-  c #E3DEE0",
"Y  c #B4B4B4",
",. c #9A96C6",
"O  c #AAA9AA",
"r  c #CED5B2",
".. c #F0F0ED",
"S. c #77856A",
"y  c #ECCAD1",
" . c #E9ECEC",
";  c #E9ECED",
"B. c #BFC9CA",
"$  c #DADADA",
"=. c #E9E9EB",
"D  c #F8F8F8",
"+. c #F3F1F5",
"9. c #DDDBCB",
">. c #99A0C8",
"Y. c #979796",
"~  c #CECFCC",
"N  c #C8E4D3",
"o. c #B5B5B5",
"3  c #DBDEC6",
"^  c #DDDEE0",
"E  c #ECEDEE",
"I  c #F1F1F0",
"h. c #F1F1F1",
"=  c #E6D0D2",
"-. c #E7E6E8",
"d  c #A1A2B4",
"v. c #919A7B",
"|  c #D1D3D3",
")  c #AEAEAE",
"   c None",
"s  c #EAEAEA",
"X. c #F9F9F9",
"m  c #ABAAD1",
"&. c #848586",
"T. c #7A7A7B",
"1. c #B1B5B9",
"0  c #939495",
"p. c #BEBE9E",
"+  c #ACAEAF",
"7  c #DEE2E4",
"l  c #E5DDDD",
"_  c #B6B6B6",
"!  c #F2F5F6",
"g. c #616376",
"w  c #B3D2B7",
"j  c #E4EDCF",
"5  c #D5B5BB",
"h  c #A0CCA3",
"t  c #DBC9C0",
"%  c #91918E",
"1  c #858C86",
"0. c #99C593",
"N. c #E6E7E8",
"L. c #C3C2C4",
"Z  c #FAFAFA",
"8. c #F0EFEF",
"s. c #85AF88",
"B  c #ECF8E8",
"E. c #6C6C6D",
"g  c #B1CCB8",
"}  c #8A8A8B",
"'  c #E4E7E3",
"f  c #C3C5DE",
";. c #E4E4E3",
"i  c #FDFEFE",
"4. c #F3F3F5",
"P  c #E6E4FE",
"&  c #BFBFB1",
"$. c #BFC2BC",
"{  c #8D8E8E",
"<  c #929292",
"U  c #B0B0B0",
"3. c #C9CACA",
"l. c #E2E4E6",
"<. c #9CA0B1",
".  c #DDDDDD",
"A  c #ECECEC",
"x  c #FBFBFB",
":  c #FBFBFC",
":. c #CFDED6",
"o  c #979090",
"e. c #807FAB",
"a. c #B9C29A",
"m. c #959696",
"W  c #8B8B8B",
"*. c #9A9A9A",
"V. c #B29EA1",
"e  c #C3D0B7",
"I. c #998180",
"C. c #A77D84",
"]  c #CCCED1",
"4  c #D1CCBE",
"i. c #BB9095",
"d. c #75A17A",
"v  c #E5E5E5",
"r. c #8B8EA7",
"*  c #E2D2D0",
"Q  c #8E8F8F",
"k  c #FCFCED",
"f. c #7D8C98",
"9  c #939393",
"u. c #CEBCBF",
"M  c #A4A8CB",
"W. c #706B6C",
"D. c #787C78",
"6. c #D9DADC",
"F  c #F7F8F8",
"z  c #EDEDEE",
"T  c #FCFCFC",
"H  c #878888",
"Z. c #969184",
"z. c #CBA3A6",
"@  c #9B9B9C",
"c. c #ABB18E",
"t. c #B9B9BB",
"H. c #F0F1F1",
"J  c #F0F1F2",
"u  c #F5F5F3",
"S  c #F5F5F5",
"L  c #B1B1D7",
"V  c #F0EEF0",
"#  c #949494",
"j. c #A3A3A3",
"@. c #B6B2DB",
"[  c #D5D7D7",
"2  c #D1E0CC",
"Q. c #9E9C9C",
"c  c #D0D0D0",
"J. c #F8F9F9",
"x. c #BBA1A1",
"a  c #FDFDFD",
"n  c #DADBE6",
"2. c #797A7A",
"/  c #F3F2F7",
"(  c #FDFAFB",
"y. c #E7EDEE",
"b  c #979899",
"U. c #68685C",
"n. c #67846E",
"C  c #FBFDFD",
"8  c #F1F2F2",
"O. c #F6F6F6",
"7. c #F1EFF1",
"R. c #727374",
"K. c #DBE2E3",
"q. c #95BE99",
"G  c #959595",
"P. c #BB9297",
"#. c #C2C5C9",
"A. c #A0A480",
"w. c #8B90AA",
"p  c #FEFEFD",
">  c #FEFEFE",
"b. c #709976",
"M. c #8E8E8E",
"R  c #E8EBE9",
"G. c #ACACAC",
"F. c #A2A1A1",
"5. c #CFD1D3",
/* pixels */
"        . X o O + @ # $         ",
"      % & * = - ; : > , <       ",
"    1 2 3 4 5 6 7 8 : > > 9     ",
"  0 q w e r t y u i p a > > #   ",
"s d f g h j k l z x > a a > c v ",
"b n m M N B V C Z A S > > D F G ",
"H J K L P I > U Y T A > x R E W ",
"Q ! ~ ^ / ( )   > _ S ` ' ] [ { ",
"} > |  ...X.o.Z O._ +.@.#.$.%.&.",
"*.T =.> -.;.a _ _ T :.>.,.<.1.2.",
"3.4.> > > 5.6.7.8.9.0.q.w.e.r.# ",
"S t.> T > > y.u.i.p.a.s.d.f.g.h.",
"  j.k.> T > > l.z.x.c.v.b.n.m.  ",
"    M.S > i N.B.V.C.Z.A.S.D.    ",
"      F.G.H.J.K.L.P.I.U.Y.      ",
"        a j.T.R.E.W.Q.x         "
};
