/* XPM */
static char *tlb_physical_xpm[] = {
/* columns rows colors chars-per-pixel */
"16 16 29 1",
"& c #F7F7F6",
"0 c #8C8E8A",
"4 c #F0F0EF",
"2 c #F0F0F0",
"o c #FFFFFF",
"+ c #F8F8F7",
". c #8D8F8A",
"3 c #F1F1F0",
"1 c #F1F1F1",
"  c None",
", c #F2F2F1",
"> c #F2F2F2",
"$ c #2E3192",
": c #999999",
"< c #F3F3F2",
"; c #F3F3F3",
"X c #888A85",
"% c #0072BC",
"9 c #ECECEB",
"8 c #ECECEC",
"- c #F4F4F3",
"6 c #EDEDED",
"# c #9B9B9B",
"* c #F5F5F4",
"7 c #EEEEED",
"= c #F6F6F5",
"O c #8B8D88",
"5 c #EFEFEE",
"@ c #FEFEFE",
/* pixels */
" .XXXXXXXXXXXX. ",
" XooooooooooooO ",
" Xo++++++++++@O ",
" Xo+##+$+%%%+@O ",
" Xo+##&$*%%%+@O ",
" Xo++++++++++@O ",
" Xo++++$&%%%=@O ",
" Xo++++$+%%%*@O ",
" Xo+++++&=*-;@O ",
" Xo+::-$>%%%,@O ",
" Xo+::<$1%%%2@O ",
" Xo&=*-3,3245@O ",
" Xo*-<,$2%%%6@O ",
" Xo-457$8%%%9@O ",
" Xo@@@@@@@@@@oO ",
" .OOOOOOOOOOOO0 "
};
