/* XPM */
static char *tlb_catalog_xpm[] = {
/* columns rows colors chars-per-pixel */
"16 16 86 1",
"+ c #CACACA",
"U c #D9D9D8",
"* c #D9D9D9",
"S c #F7F7F7",
"~ c #A5A5A5",
"_ c #B4B4B4",
"$ c #C3C3C3",
"Y c #D2D2D1",
"2 c #D2D2D2",
"I c #E1E1E0",
"N c #F0F0F0",
"@ c #ADADAD",
"1 c #BCBCBC",
"j c #CBCBCA",
"o c #CBCBCB",
"C c #DADAD9",
"y c #DADADA",
"w c #E9E9E9",
"P c #F8F8F8",
"h c #E2E2E1",
"e c #F1F1F1",
"> c #AEAEAE",
"8 c #BDBDBD",
"9 c #CCCCCC",
"  c None",
"0 c #DBDBDB",
"n c #EAEAE9",
"a c #EAEAEA",
"A c #F9F9F9",
"< c #B6B6B6",
"J c #C5C5C5",
"M c #D4D4D3",
"x c #D4D4D4",
"F c #E3E3E2",
"= c #E3E3E3",
"D c #F2F2F1",
"t c #BEBEBE",
"G c #CDCDCD",
"3 c #DCDCDC",
"- c #EBEBEB",
"T c #B7B7B7",
", c #C6C6C6",
"m c #D5D5D5",
"l c #E4E4E3",
"q c #E4E4E4",
"r c #F3F3F3",
": c #BFBFBF",
"Z c #CECECE",
"V c #DDDDDC",
"f c #DDDDDD",
"^ c #ECECEC",
"E c #B8B8B8",
"% c #C7C7C7",
"R c #D6D6D6",
"p c #E5E5E4",
"4 c #E5E5E5",
"6 c #F4F4F4",
"# c #C0C0C0",
"& c #CFCFCF",
"z c #DEDEDD",
"5 c #EDEDED",
"L c #FCFCFC",
"H c #D7D7D7",
"Q c #E6E6E6",
"7 c #F5F5F5",
"( c #858585",
") c #C1C1C1",
"O c #D0D0D0",
"i c #DFDFDE",
"v c #DFDFDF",
"d c #EEEEED",
"! c #EEEEEE",
"K c #FDFDFD",
"` c #9C9C9C",
"W c #BABABA",
"k c #C9C9C8",
"b c #C9C9C9",
"c c #D8D8D8",
"; c #E7E7E7",
"/ c #B3B3B3",
"X c #C2C2C2",
"u c #D1D1D1",
"g c #E0E0E0",
"s c #EFEFEE",
"B c #EFEFEF",
". c #BBBBBB",
/* pixels */
"                ",
"     .XoOo+     ",
"   @#$%&*=-;:   ",
"  >,<1,2345678  ",
"  +,8:90qwer;*  ",
" ty&9uipasdyfq, ",
" 9g3y=hjklzxcvb ",
" xa;;nm  tzMxy2 ",
" *rNBsV  $CZ&m+ ",
" cAS7DFG+HM,+O# ",
" JKLP=IVUY::J9T ",
"  4Ke;3RGXEW#.  ",
"   QS!402b:<E~  ",
"    O6^=*Ob/(   ",
"     ~tJ)_`     ",
"                "
};
