/* XPM */
static char *tlb_open_xpm[] = {
/* columns rows colors chars-per-pixel */
"16 16 74 1",
"u c #F7F7F6",
"3 c #F7F7F7",
"= c #646562",
"J c #A3C0E0",
"T c #83ABD5",
"Y c #79A0CC",
". c #717A81",
"t c #585A56",
"9 c #F0F0EE",
"s c #F0F0EF",
": c #FFFFFF",
"I c #729FCF",
"* c #60625E",
"l c #81A2CA",
"y c #F8F8F7",
"@ c #6F716D",
"h c #F8F8F8",
"e c #204A87",
"k c #F1F1EF",
"8 c #F1F1F0",
"o c #777975",
"D c #A2BEDD",
"r c #ACC3DF",
"  c None",
"; c #70726D",
"2 c #F9F9F8",
"c c #F9F9F9",
"q c #214B88",
"a c #F2F2F0",
"7 c #F2F2F1",
"$ c #696B67",
"H c #94B3D6",
"N c #E6EAEE",
"g c #FAFAF9",
"x c #FAFAFA",
"P c #7CA6D2",
"Z c #224C88",
", c #224C89",
"V c #27508B",
"v c #4F79B1",
"d c #A6BDDA",
"L c #90B3D9",
"p c #F3F3F1",
"j c #F3F3F2",
"F c #AEC8E3",
"& c #636561",
"+ c #72746F",
"b c #FBFBFA",
"M c #FBFBFB",
"C c #234D89",
"6 c #F4F4F2",
"i c #F4F4F3",
"X c #7A7C77",
"S c #6E8FBB",
"m c #3A6AA7",
"0 c #555753",
"1 c #646662",
"< c #9EB7D5",
"- c #29528D",
"U c #8DB1D8",
"z c #6A8FBE",
"n c #F5F5F3",
"5 c #F5F5F4",
"# c #6C6E6A",
"f c #97B3D5",
"B c #7E96B9",
"> c #565854",
"G c #9FBBDA",
"w c #254F8B",
"A c #2F5790",
"4 c #F6F6F5",
"K c #A2BFDF",
"% c #666864",
"O c #757772",
/* pixels */
"                ",
"  .XoO+@#$%&*=  ",
" -;::::::::::>  ",
",<1:23456789:0qw",
"ert:2yu5ipas:0dq",
"ef0:ghu4ij7k:0fe",
"el0:g2345678:0le",
"ez0:xcyu5ija:0ze",
"ev0:bghu4nj7:0ve",
"em0:MxNBVeeeeeCZ",
"q,eeeeASDFFFFFGe",
"eHJJJJKLPIIIIIJe",
"eUIIIIIIIIIIIIUe",
"eYTTTTTTTTTTTTYe",
"CqeeeeeeeeeeeeqC",
"                "
};
