/* XPM */
static char *tlb_search_xpm[] = {
/* columns rows colors chars-per-pixel */
"16 16 77 1",
"9 c #E8EEF7",
"1 c #8AACD2",
"l c #C8D9EC",
"J c #8C8E89",
"B c #A3BDDA",
"8 c #DCE6F2",
"# c #F0F0EF",
"+ c #FFFFFF",
"6 c #A3AEBB",
"h c #D0DEEE",
"= c #A8A9A6",
"e c #97AFCB",
"K c #7E807B",
"X c #8D8F8A",
"i c #DDE7F2",
"f c #A9BFD6",
"n c #B3CAE5",
"- c #AEBAC8",
"V c #93AFCE",
"  c #9A9B97",
"r c #A2B8D0",
", c #D6D7D5",
"o c None",
"3 c #C5D7EA",
"H c #757673",
"a c #A0BEDF",
"y c #D9E4F1",
"m c #C3D7EB",
"k c #CDDCED",
"z c #BCD0E8",
"p c #C1D4E9",
"M c #C1D4EA",
"< c #A8B7C8",
"c c #FAFAF9",
"G c #97B4D3",
"j c #DAE5F2",
"Y c #A3A4A3",
"P c #8BACCF",
"5 c #90ADCB",
". c #888A85",
"R c #8D8E8C",
"& c #818380",
"u c #E0EAF3",
": c #A2BAD4",
"E c #B8B8B7",
"$ c #C7C7C6",
"% c #D6D6D5",
"v c #A7B5C3",
"q c #CADAEC",
"@ c #898B86",
"g c #A5C1E0",
"F c #A0BAD6",
"W c #848482",
"I c #80A8D1",
"7 c #85A9CF",
"C c #CFCFCD",
"* c #828480",
"U c #99B3D0",
"D c #B2CAE3",
"> c #A8B9CD",
"T c #6C6E6A",
"4 c #9CBAD9",
"O c #8A8C87",
"; c #A6BCD2",
"0 c #E4ECF5",
"s c #81A6D0",
"2 c #BFD3E7",
"Z c #9FB8D1",
"L c #B3C8DC",
"w c #8EB2D8",
"b c #89ABD0",
"A c #91B3D6",
"d c #FEFEFD",
"N c #CFDDEE",
"t c #A5C0DF",
"x c #80A7D1",
"S c #AFC5DF",
/* pixels */
" ..........Xoooo",
"O++++++++++.oooo",
"@+########+.oooo",
"O+#$$$$$$#+.oooo",
"@+####%&&&&*oooo",
"O+#$$=&-;:>&oooo",
"@+##,&<12345&ooo",
"O+#$&67890qwe&oo",
"O+##&rtyuipas&oo",
"@d##&fghjklzx&oo",
"@c##&vbnmMNBV&oo",
"@+++C&ZASDFG&Hoo",
"J@...K&LPIU&YYTo",
"ooooooT&&&&REYYW",
"ooooooooooooREYW",
"oooooooooooooRRW"
};
