/* XPM */
static char *vvv_xpm[] = {
/* columns rows colors chars-per-pixel */
"32 32 13 1",
". c Black",
"o c #BFBF00",
"@ c #FFFFFF",
"O c #808080",
"# c #00BFBF",
"* c #FF00FF",
"& c #FFFF00",
"% c #00FFFF",
"$ c #0000FF",
"+ c #C0C0C0",
"  c None",
"X c #00FF00",
"= c #BF00BF",
/* pixels */
"            ........            ",
"         ...XXooO+++...         ",
"       ..O++XXooO+++@++..       ",
"      .#O$++XXooO++++@+@@.      ",
"     .###$O+XXooO+++@+@@@@.     ",
"    .####O$++XOoO++++@@@@@@.    ",
"   .++####$O+X+oO+++@+@@@@++.   ",
"  .++++###O$+X+oO++@+@@@@++O+.  ",
"  .%++++###$OXXoO+++@@@@++O+O.  ",
" .%%%%+++##O$XXoO++@@@@++O+O+O. ",
" .&&%%%%++##$OXoO+@+@@++O+O+O+. ",
".XX&&&&%%++#O$XoO++@@++O+O+O+O+.",
".XXXXX&&&&%+#$OOOOO@++O+O+O+O+O.",
".ooooXXXX&&&OO....OO+O+O+O+O+O+.",
".*****ooooooO.O@@O.OO+O+O+O+O+O.",
".=*=*=*=*=*=O.@@@@.OOOOOOOOOOOO.",
".OOOOOOOOOOOO.@@@@.O=*=*=*=*=*=.",
".O+O+O+O+O+OO.O@@O.Ooooooo*****.",
".+O+O+O+O+O+OO....OO&&&XXXXoooo.",
".O+O+O+O+O++@OOOOO$#+%&&&&XXXXX.",
".+O+O+O+O++@@++OoX$O#++%%&&&&XX.",
" .+O+O+O++@@+@+OoXO$##++%%%%&&. ",
" .O+O+O++@@@@++OoXX$O##+++%%%%. ",
"  .O+O++@@@@+++OoXXO$###++++%.  ",
"  .+O++@@@@+@++Oo+X+$O###++++.  ",
"   .++@@@@+@+++Oo+X+O$####++.   ",
"    .@@@@@@++++OoOX++$O####.    ",
"     .@@@@+@+++OooXX+O$###.     ",
"      .@@+@++++OooXX++$O#.      ",
"       ..++@+++OooXX++O..       ",
"         ...+++OooXX...         ",
"            ........            "
};
