/* XPM */
static char *vvv16_xpm[] = {
/* columns rows colors chars-per-pixel */
"16 16 116 2",
"x  c #CACAC9",
"5  c #D9D9D9",
"K  c #E8E8E8",
"8  c #F7F7F7",
"e  c #AFB0AE",
"9  c #C3C3C2",
"q  c #C3C3C3",
"H  c #D2D2D2",
"l  c #E1E1E1",
",. c #F0F0F0",
"5. c #6C6D6A",
"X. c #B7B8B5",
"&. c #ADADAC",
"+. c #BCBCBC",
"@  c #DADAD9",
"!  c #DADADA",
"N  c #E9E9E9",
"D  c #747572",
"4. c #6A6A68",
"r  c #B0B1AE",
"O. c #B0B1AF",
"w  c #B5B5B4",
":  c #C4C4C3",
"[  c #C4C4C4",
"P  c #D3D3D3",
"<. c #E2E2E2",
"_  c #F1F1F1",
"p  c #7C7D7A",
"'  c #9A9B98",
")  c #D6D7D4",
"1  c #BDBDBD",
"*  c #CCCCCC",
"o  c #DBDBDB",
"7  c #EAEAEA",
"F  c #F9F9F9",
"3. c #666764",
"G  c #B1B2AF",
"~  c #B1B2B0",
";. c #A7A7A6",
"b  c #C0C1BF",
"s  c #C5C5C4",
"f  c #C5C5C5",
"h  c #E3E3E3",
"<  c #BEBEBE",
"4  c #CDCDCD",
"-  c #DCDCDC",
"z  c #EBEBEB",
"`  c #FAFAFA",
"A  c #C1C2BF",
"1. c #C1C2C1",
"$. c #C6C6C6",
"-. c #D5D5D5",
"   c None",
"C  c #E4E4E4",
"Y  c #F3F3F3",
"W  c #6F706D",
"L  c #ABACA9",
"=. c #BFBFBF",
"&  c #CECECE",
"V  c #DDDDDD",
"(  c #ECECEB",
"/  c #FBFBFB",
":. c #777875",
"n  c #A9A9A9",
"R  c #C7C7C7",
"%  c #D6D6D6",
"6  c #E5E5E5",
"O  c #F4F4F4",
"o. c #ACADAA",
"y  c #CACBC9",
"a  c #D9DAD9",
"0  c #CFCFCF",
"u  c #DEDEDD",
"#. c #DEDEDE",
";  c #EDEDED",
"$  c #FCFCFC",
"@. c #7D7D7B",
"{  c #C3C4C3",
"%. c #B9B9B9",
"M  c #C8C8C7",
"3  c #C8C8C8",
"v  c #D7D7D7",
"I  c #E6E6E6",
"c  c #F5F5F5",
"E  c #71726F",
"}  c #80817E",
"Q  c #C1C1C0",
"d  c #C1C1C1",
">. c #D0D0D0",
"Z  c #DFDFDF",
",  c #EEEEEE",
"+  c #FDFDFD",
"*. c #6A6B68",
"2. c #797A77",
"X  c #7E7E7C",
"t  c #B5B6B3",
"B  c #C4C5C3",
"^  c #C9C9C9",
"g  c #D8D8D8",
"i  c #E7E7E7",
"U  c #F6F6F6",
"m  c #727370",
"S  c #727371",
"j  c #CCCDCA",
".. c #DBDCDA",
"2  c #C2C2C2",
"=  c #D1D1D1",
"k  c #E0E0DF",
" . c #EFEFEE",
"|  c #FEFEFE",
".  c #6B6C69",
"J  c #C5C6C3",
"#  c #C5C6C4",
">  c #C5C6C5",
"]  c #BBBBBA",
"T  c #D4D5D3",
/* pixels */
"          . . . . . .           ",
"      . X o O + + O @ X .       ",
"    . # $ % & * = - ; + : .     ",
"  . > , < 1 2 3 4 5 6 7 8 9 .   ",
"  X $ 0 q w e r t y u i , $ p   ",
". a 6 = s d f = g h j k l z x . ",
". c l v b * n m m M N B % V C . ",
". + i Z A V S     D F G H v N . ",
". + ; 6 J K D     m F L & P I . ",
". U Y z T l R E W Q ! ~ ^ 0 ! . ",
". V / Y ( ) _ ` ` - ' ] [ P { . ",
"  } | / 8  ...X.o.O.] +.2 i @.  ",
"  . B + / 8 ; #.% & $.%.V &.*.  ",
"    . =.$ / , C - -.% I ;..     ",
"      . :.>.i Y ,.<.1.2..       ",
"          3.4.. 5.*.3.          "
};
