/* XPM */
static char *vvv16_xpm[] = {
/* columns rows colors chars-per-pixel */
"16 16 201 2",
"@  c #BBBBBC",
"*. c #D4D5D6",
"}. c #E3E4E4",
"2  c #D9D9D9",
",  c #E3E4E5",
"Z. c #F2F3F3",
"L. c #9D9DA8",
"o. c #E4FAFB",
"@X c #B3A4A4",
"I  c #D7E5F3",
"i  c #DCE3E1",
"D. c #D6C6C6",
"T. c #D6C6C7",
"L  c #EBEFEE",
"u  c #9B9DA2",
"-X c #B4B4B4",
"t. c #BEC8DE",
"'  c #C8CACE",
"J  c #DFEAE6",
"+  c #B9B8B9",
"1  c #D2D2D3",
"b  c #DAE3DF",
"C  c #FAFBFB",
"p  c #E4EBE4",
"N  c #EBE9E8",
"+X c #BBA9AB",
"u. c #A8A9AA",
"2. c #B5D3FF",
"-. c #BCBCBD",
"_. c #D5D6D7",
"^. c #CBCBCB",
"9  c #CDC2C3",
"r  c #F3F4F4",
"Y  c #F8F8F8",
")  c #ECF6F6",
"f. c #B7B8C5",
"G. c #ABADAA",
"{. c #ABADAB",
"d  c #DAD1CD",
"S. c #DFD8D9",
"/  c #ECF3F9",
"*X c #BFC0C0",
"+. c #DEF7FA",
".X c #DDDEDE",
"[. c #A4A696",
"q. c #DDDEDF",
";X c #BFBDBD",
"P. c #FBFCFC",
">X c #F1F1F1",
"5  c #E5E9E3",
"*  c #90908E",
"   c None",
"W  c #DBDBDB",
"b. c #D1D0D0",
"5. c #DBDBDC",
"A. c #F9F9F9",
"OX c #C2BEC0",
"@. c #C8E4FC",
"(  c #EDF4F4",
"'. c #C4B2B3",
"M  c #F2F2E8",
"m  c #E1E9DA",
"^  c #E8EDF2",
"=X c #B6B6B7",
"9. c #C0C1C3",
"B  c #E3E9F2",
"0  c #ACABAC",
">  c #CFD0D1",
"}  c #C5C5C6",
"H  c #DEE2E9",
"R  c #EDEEEE",
"g  c #CFD0D4",
"8. c #CFD0D5",
"7  c #D9D5CD",
"/. c #F2F2F3",
"f  c #E0D3D4",
"V. c #A2A3B5",
"J. c #C8CCCC",
"y. c #B4B9C1",
"a. c #CDD0D1",
"e. c #B4B6B9",
"i. c #B9BABB",
"D  c #AFAFB1",
"3  c #BEBEBF",
"&X c #CDCDCD",
"{  c #D7D8D9",
"x  c #C3C2C3",
"z  c #DCDCDC",
"s  c #D5D8C7",
"&. c #EBEBEC",
"j  c #FAFAFA",
"m. c #8A8D8F",
"3. c #C6D8FC",
":. c #A3A4A5",
"U  c #BCC1CA",
"R. c #CDC1BE",
"q  c #DFE0E1",
"$  c #D5D5D5",
"K  c #ECF5EE",
"X  c #E4E4E4",
"l  c #F3F3F3",
"=  c #A1A199",
"-  c #A89F9D",
"n. c #ABACA9",
"p. c #97999B",
"=. c #C9CACC",
"]. c #BAB5AC",
"V  c #BABBC0",
"j. c #E7E8E8",
"|. c #DDDDDD",
"<  c #ECECED",
"Z  c #FBFBFB",
"G  c #ECECF1",
"B. c #A6A8BE",
"d. c #BABBCF",
"8  c #D5C3C3",
"4  c #A4A5A4",
" . c #C2C9D5",
"r. c #BDC5D7",
";. c #B8B8B9",
"E  c #E0E1E2",
"y  c #E5E5E5",
"[  c #E5E5E6",
"v. c #DBDADB",
".  c #F4F4F4",
"T  c #F4F4F5",
"Y. c #E0DEDF",
"<. c #BEDEFF",
"_  c #E1F4F7",
"M. c #C5CACB",
"W. c #ACADAB",
"H. c #A7A9AB",
"#. c #CADAFA",
"4. c #B6B8BB",
"A  c #CACBCB",
"`. c #CCC2C3",
"x. c #C0C0C0",
"!  c #CFD8EB",
"Q. c #CACBCD",
"XX c #D9DADB",
"h  c #C0C0C2",
"t  c #CFCFCF",
"C. c #DEDEDE",
"1. c #C1E2FF",
"]  c #EDEDED",
"(. c #EDEDEE",
"E. c #B4B5A7",
"%  c #FCFCFC",
"|  c #A5A6A6",
" X c #B9B9B9",
";  c #A29697",
"g. c #B4B5BA",
"a  c #DAE1D5",
"o  c #C8C8C8",
":  c #A5A3A4",
"h. c #D7D7D7",
"k. c #F0F1F1",
"s. c #C3C7D5",
"). c #E6E6E7",
"I. c #F5F5F6",
"P  c #E9F3F3",
"`  c #C6DAF7",
"#X c #A3A39D",
"!. c #CBCFCE",
"N. c #B2B8C4",
"w. c #ADAEAF",
"0. c #BCBDBD",
"Q  c #A3A3A4",
">. c #CBD5E9",
"c. c #CBCCCC",
"oX c #CBCCCD",
"&  c #C1C1C2",
"l. c #E9EAEA",
"X. c #DBF4FA",
"c  c #BCC0CD",
":X c #DFDFDF",
",. c #B5D1FF",
"6. c #DFDFE1",
"U. c #EEEEEF",
"S  c #FDFDFD",
"K. c #A1A9B2",
"F. c #C4C2B7",
"v  c #D8DEE3",
"z. c #D3D4D4",
"$X c #C9C9C9",
"$. c #C9C9CA",
"w  c #F1F2F2",
"%. c #E7E7E7",
"e  c #F6F6F6",
"7. c #D3D4E2",
"#  c #C2C2C2",
"~. c #DBDCDC",
"~  c #EFF2F4",
"O  c #B8B7B7",
"F  c #D1D7E8",
"n  c #D2E1D4",
"k  c #FEFEFE",
"O. c #E6FAFA",
"%X c #A2A4A5",
"6  c #E3E4DB",
".. c #CDE3FA",
/* pixels */
"      . X o O + @ # $ %         ",
"  % & * = - ; : > , < 1 2       ",
"  3 4 5 6 7 8 9 0 q w e r t     ",
"y u i p a s d f g h e j k l z   ",
"x c v b n m M N B V C k Z . A S ",
"D F G H J K L P I U Y Z T R E W ",
"Q ! ~ ^ / ( ) _ ` ' ] T R [ { } ",
"|  ...X.o.O.+.@.#.$.%.&.E *.=.-.",
";.:.>.,.<.1.2.3.4.5.6.7.8.=.9.;.",
"0.q.w.e.r.t.y.u.i.p.a.s.d.f.g.& ",
"h.j.k.l.z.x.c.v.b.n.m.M.N.B.V.C.",
"S -.Z.A.S j &.S.D.F.G.H.J.K.L.  ",
"  W y % P.I.U.Y.T.R.E.W.Q.!.~.  ",
"    ^.%./.(.)._.`.'.].[.{.q }.  ",
"      |. X.XXXoXOX+X@X#X$X%X&X  ",
"        S W *X=X-X;X:X    >X%   "
};
