/* XPM */
static char *vvv32_xpm[] = {
/* columns rows colors chars-per-pixel */
"32 32 254 2",
"H  c #E0DAE2",
"r. c #D4D5D8",
"t. c #D9D9DB",
"3. c #D1CEE5",
";. c #CCC7DA",
"l. c #F7F7F7",
"<X c #B9BEB9",
"(  c #ACA9AD",
"mX c #D4D8E8",
"Q. c #E3E1E4",
"6  c #F2F0F1",
"SX c #CDD1CC",
"7. c #CFCED7",
"*X c #DEE0EF",
"CX c #BEC2C1",
"@. c #D9D6DB",
"AX c #787878",
"k  c #EDE9EB",
"(. c #B4B1A4",
"o  c #878787",
"DX c #878788",
"{. c #CACADF",
",  c #C3C3C2",
">X c #C1C0A5",
"/. c #B7B8A5",
"&. c #D2D2D4",
"h  c #C8C7C8",
"7  c #CDCBCB",
"rX c #FAF8F9",
"XX c #C6C4B3",
".. c #B4B1BA",
"O  c #808081",
"a  c #BCBCBC",
"cX c #CBCBCA",
"y. c #DADAD8",
":  c #B2B1B2",
"W  c #E1DBE5",
"GX c #D5D9E3",
"<. c #B2B1B7",
"6X c #B2ABA8",
"1. c #ADAAB2",
"]. c #DFDEE5",
"l  c #F3F1F3",
"4X c #EEEDF3",
"hX c #EEEDF5",
"c. c #D5D3DC",
">  c #888888",
"_. c #BABFC5",
"T. c #A6A9AD",
"D  c #C1BDC7",
"[. c #DADAEC",
"~. c #BAB9B3",
"Z  c #8D8C8C",
"g  c #C4C4BF",
"A  c #BAB9B6",
"x  c #B5B5B5",
"FX c #D3D6DD",
"n. c #C9CBD2",
"S  c #BFBDBC",
"3  c #D8D7D6",
"Y  c #BFBDBE",
"i. c #F1F1F1",
"W. c #F6F5F3",
"m. c #B0B4C8",
"b  c #C4C1C6",
"LX c #9FA2A1",
"v. c #BFBDC6",
"D. c #BAB9C6",
"i  c #E7E3E5",
"M  c #CEC9CD",
"L  c #90908F",
"JX c #C7CBCD",
"o. c #C4C1CE",
"v  c #BDBDB8",
"MX c #CCCFD0",
"E  c #BAB6C3",
"=X c #D3D3E7",
"N  c #DDD8DF",
"}  c #CCCCC8",
"0. c #DBDBD7",
"|  c #A4A3A6",
"z  c #DBDBDB",
"'. c #F9F9F7",
"-. c #BAB6CD",
"$. c #EAEAEA",
"{  c #D1D0D1",
"NX c #C5C8BE",
"a. c #C2C1CA",
"%X c #EAEAF2",
"nX c #848585",
"4. c #BDBDCF",
"*. c #CACCC8",
"@  c #898989",
"s. c #89898A",
"j  c #E5E0E3",
"V  c #E5E0E5",
"+  c #8E8D8E",
"Q  c #E5E0E7",
"K. c #F2F2EF",
"~  c #CAC9CA",
"U. c #CDCDBF",
">. c #D4D1D8",
"k. c #828282",
":. c #CFCDD9",
"R  c #C0BBC2",
"2X c #919191",
"2  c #D7D8D3",
"iX c #C8C6BF",
"s  c #DCDCDC",
"BX c #C1C5BA",
"aX c #B7BAAE",
"F. c #A5A7B5",
";X c #B7B49B",
"=. c #BEBBBD",
"#X c #F0EFF0",
"3X c #F5F3F6",
"8X c #ADB2BA",
"I. c #B4B6D0",
"e. c #C3C2D3",
"X  c #8A8A8B",
"B. c #D0D4D6",
"9. c #DFE0DA",
"w  c #C6C6C1",
"pX c #C6C3BA",
"Z. c #EEEFEA",
"q. c #D5D5D3",
"   c None",
"OX c #BABEB2",
"<  c #E4E4E3",
"N. c #CBCDD5",
"=  c #E9E8E5",
"uX c #D0D4E2",
"C. c #F3F3F3",
"1  c #DFDDDE",
"m  c #CBC7CB",
"p  c #E9E5E7",
"+X c #BABEC0",
"5X c #DADCF0",
"5. c #B2B0C1",
"X. c #ADA9B7",
"_  c #B2ADB8",
"`. c #BFC2C5",
"2. c #888788",
",. c #ABACAD",
"j. c #CED1D5",
"d. c #C6C6DE",
":X c #BDBCA0",
"`  c #D0CBD7",
"J  c #E4DEE6",
"). c #BABBC0",
" . c #A6A5A9",
"[  c #ECECEC",
"'  c #DAD3E0",
"qX c #BFB9B5",
"I  c #E7E5E5",
"tX c #F1F0F6",
"T  c #BAB5BD",
"-X c #C9CAE0",
"G  c #CEC8D0",
"S. c #D3CFDC",
"&  c #E5E5E4",
"!. c #DBDDE5",
"A. c #D6D6DE",
")  c #A9A6AE",
"f. c #A4A5BA",
"c  c #BBBCB5",
"d  c #C0C0C0",
"%  c #DEDEDB",
";  c #D4D3D0",
"r  c #CAC8C5",
"J. c #D9DADF",
"jX c #CFD2E4",
"u  c #D4D0D1",
"PX c #878888",
".  c #8C8C8B",
"HX c #D2D6DB",
"@X c #CDD2DC",
"#  c #AFAEAF",
"oX c #BCBDA8",
"O. c #CAC5D4",
"kX c #B7BCB2",
"/  c #B4B2B4",
"5  c #F0EEEE",
"ZX c #999B9B",
"]  c #E6E3E7",
"sX c #C1C7CC",
"P. c #AFAEC3",
"f  c #C1C1BC",
"H. c #CBCFD3",
"+. c #CDC9D8",
",X c #BABDAD",
"q  c #C6C5C5",
" X c #D5D1C9",
"9  c #DFDFDF",
"n  c #C6C5C9",
"7X c #BAC0BD",
"^. c #C4C5B6",
"bX c #C4C5B8",
"b. c #CBC9CE",
"!  c #EEEBEB",
"lX c #F3F2F9",
"dX c #9C9FA2",
"F  c #C6C2C9",
"KX c #BABDBD",
"6. c #CBC9D5",
"vX c #C9C9C3",
"&X c #E4E3F1",
"p. c #E2E3DD",
"e  c #C9C9C4",
"8  c #ABABAA",
"}. c #CBC9DB",
"z. c #E7E7E1",
"|. c #D0CDDF",
"h. c #C4C8D2",
"t  c #CECDCB",
"%. c #D8D8D8",
"$  c #CECDCD",
"L. c #ECEBE8",
"8. c #E7E7E7",
"*  c #ECEBEA",
"x. c #DDDCDE",
"-  c #E2E0E0",
"G. c #B5B6C5",
"$X c #ECEBEF",
"9X c #8B8D8D",
"4  c #DDD9DA",
"w. c #ABABBD",
"g. c #BABACB",
"zX c #ECEBF5",
"yX c #E7E7F4",
"u. c #868686",
".X c #D1CEBF",
"Y. c #AEACA4",
"wX c #C2BFB3",
"B  c #E2DDE3",
"M. c #BDC4D2",
"V. c #D6D8D8",
"K  c #E7E1E6",
"^  c #B8B7B7",
"xX c #CCCDD1",
"U  c #BDBBBA",
"0  c #D6D5D5",
"VX c #C5C9C0",
"y  c #D1CECE",
"#. c #DBD9DC",
"0X c #F9F7F7",
"1X c #BBC1C2",
"E. c #BBC4CD",
"gX c #F9F7FA",
"fX c #898A8A",
"R. c #BBC1C8",
"eX c #C5C0AD",
"P  c #8E8E8E",
"C  c #EAE5E8",
/* pixels */
"                                                                ",
"                                                                ",
"                          . X o O o X +                         ",
"                    @ o # $ % & * = - ; : @ .                   ",
"                > X , < 1 2 ; ; ; 3 4 - 5 6 7 X X               ",
"              > 8 9 0 q w e r t y u 0 4 i p 5 5 : X             ",
"            > a s d a f g w q h 7 y u 4 j i p k l q @           ",
"          @ d z a x c v f , b n m M y N B V i C k 6 h Z         ",
"        X # < , a c A v S d D F F m G H B J K K C k 6 : L       ",
"        P I $ q f v A A U Y T R E R G N H W Q K p k ! * L       ",
"      P ~ 9 $ h w f U ^ / ( ) T _ _ D ` ' W J Q ] i - p h L     ",
"      X [ 0 { } e , Y : |  .) ....X.o.O.+.' W W @.#.1 - $.>     ",
"      x $.%.&.y *.q =.)  .| ) E b -.;.O.;.+.:.` >.@.#.1 = ,.    ",
"    + %.I s 2 ; $ h <.1. .8 | > O 2.X.3.4.5.E 6.7.>.@.#.< t P   ",
"    . 8.8.9.0.q.{ n <.1.1.8 O       O w.-.w.w.e.6.7.r.t.9 y..   ",
"    u.i.$.p.% 3 &.a.5.w.5.s.          s.d.f.w.g.h.6.j.r.z 9 o   ",
"    k.l.$.z.x.c.:.o.v.v.b.O           O n.f.f.m.M.h.N.B.V.< k.  ",
"    u.C.Z.= < A.S.e.g.D.O.X           @ t ) F.G.4.M.h.H.r.J.o   ",
"    + [ K.L.I - J.7.G.P.I.5.O       k.v U.Y.T.D.R.E.h.n.B.j..   ",
"    L 9 W.Z.$.Q.!.c.4.e.d.3...2.O @ ~.z.^./.(.)._.R.E.h.B.`.+   ",
"      ^ '.K.[ ] ].].[.{.d.}.|.S.u  X.XXXXXoXoXOX+X_.E.E.@X|     ",
"      X '.W.#X$X%X&X*X=X-X}.D.1.1.Y.(.;X:X>X>X,X<X1XR.M.@Xu.    ",
"      2Xq.'.3Xl 4X&X*X5X=X|.5._ # 6X(.;X:X>X>XoXOX7X1XM.8X9X    ",
"        2X0Xl.3X4X%X&X5X[.=Xo.R =.qXwXeX>X:X:XoX,X7X_.h.s.      ",
"        2X^ rX3XtX%XyX*X5XuX6.b.h iXpXXXeXoX/./.aX<XsXdXfX      ",
"          + $ gX3XhXyX&X5XjX:.n.~ r iXpXXXwX,XaXkX`.T.@         ",
"            X ~ gXlXzXyX*XjX@X7.xXcXvXiXbXwXOXOX1X .nX          ",
"              o : tXlXzX*XmXuX@Xj.MX*.vXNXBXVXCXZXk.            ",
"                AXX ~ tX%X*XmXuX@Xj.MXSXSXSX,.nXAX              ",
"                    k.DX,.n.FXGX!.HXJXKXLXnXO                   ",
"                          nX@ u.k.u.PXk.                        ",
"                                                                "
};
