/* XPM */
static char *vvv32_xpm[] = {
/* columns rows colors chars-per-pixel */
"32 32 256 2",
"+  c #D4D5D5",
"_. c #D0EDFC",
"-  c #D9D9DA",
"c. c #F2F3F4",
"}  c #E8E8E9",
"F. c #F7F7F7",
"mX c #B4B4A5",
"8. c #A7ABC3",
"OX c #CEF0FF",
"@. c #D5DCCC",
"Y  c #D6C3C4",
"E. c #DAECF8",
"l. c #CDD4E3",
"T. c #D2D2D2",
"-X c #EBECEC",
"<X c #BEBFC6",
"#. c #E3D8D8",
"/  c #E1E1E2",
"k. c #D5E5F5",
"j  c #F0F0F1",
"v. c #EBECF1",
"M. c #E9F2F2",
"(. c #B2CCFD",
"P  c #DADACD",
"J  c #EEF3F1",
"cX c #A3A5A7",
"SX c #C0ADAF",
"H  c #B7B8B8",
"jX c #ADADAD",
"~. c #D5E2FC",
"P. c #BCCEF7",
".. c #C6C7C8",
"C. c #D5DCEC",
"*  c #CBCBCC",
"=. c #E4E8F0",
"AX c #8D8F85",
"9. c #EEF0F4",
"yX c #DFDEDE",
"g  c #E9E9EA",
"W  c #F8F8F8",
"$X c #DADAE1",
"s. c #E9E9EF",
"). c #C7E3FD",
"#X c #DADAE6",
":. c #D6E3DB",
"sX c #9CA1A9",
"<  c #79797A",
"w. c #EFFAEE",
"uX c #CECCC1",
"W. c #EAF9FA",
"-. c #D8DDE3",
"X  c #BFC0C0",
"l  c #CECFCF",
"d  c #B5B5B6",
".  c #C4C4C5",
"FX c #86887D",
"iX c #A4A697",
"8  c #DDDEDF",
"#  c #D3D3D4",
"bX c #FBFCFC",
"G. c #E2E2E3",
"k  c #F1F1F1",
"rX c #9C9EB4",
"x  c #D6DAD4",
"*X c #CECFE2",
"V  c #9A9B9C",
"'. c #E1FBFB",
"*. c #9A9EAC",
"6  c #D6D7D9",
"   c None",
"Z  c #E5E6E7",
"0  c #EAEAEB",
"tX c #F9F9F9",
"U  c #D3C4C2",
"3  c #776D6E",
",. c #EDEEE0",
"2X c #B8B9CF",
"(  c #A2A3A4",
"LX c #A7A7A7",
"c  c #EDEEE7",
"z  c #B1B2B3",
";X c #C5D7FF",
"6. c #C0C1C2",
"Z. c #BBC6E2",
"xX c #96988C",
"z. c #EDEEEE",
"f  c #E3E3E3",
"5. c #F2F2F2",
"e  c #AAABA0",
"u. c #CACCDA",
"JX c #B1A9A5",
"`. c #DDFBFD",
"IX c #B3A0A2",
"I  c #D4CBC6",
"[  c #A5A7A9",
"hX c #ADB8B5",
"<. c #F7F0ED",
"K. c #D8F4FB",
"&. c #A0A0A1",
"X. c #B9BABA",
"5  c #B4B3B4",
"Q. c #C9E8FE",
"o. c #AFB2BE",
"s  c #A09D9D",
"gX c #9EA093",
"5X c #DCDCDC",
"d. c #DCDFE7",
"Q  c #FAFAFA",
"DX c #BBABAC",
"2  c #827978",
"g. c #EEF5F5",
"+. c #DDE9DE",
"BX c #C5B3B4",
"eX c #8F9194",
"t  c #D5D5CA",
"f. c #E9EEEE",
"%. c #D5DBE1",
"w  c #949598",
"pX c #B5C0BE",
"_  c #F3F6F5",
"R  c #DCD3D4",
"=  c #D0D1D2",
"6X c #B7BAC4",
"dX c #E4E4E4",
"~  c #EEEFF0",
"CX c #BABBAB",
"B  c #ADA9AA",
"0X c #A3A4B4",
"kX c #DFDADA",
"4X c #97999B",
"oX c #CAECFF",
"R. c #BFD1F6",
"UX c #ADA3A4",
"nX c #D2BFC0",
".X c #B3D2FF",
"3. c #BABBBD",
"m  c #DAD0CF",
"Y. c #C9CACC",
"@  c #DDDDDE",
"!  c #FBFBFB",
"J. c #E3F7F8",
"%  c #C4C0C1",
"i  c #CBBBBC",
"`  c #EAEFEB",
"p  c #B7A5A6",
"V. c #CCDAF3",
"0. c #D1D5D7",
"&X c #CCDDFF",
"C  c #B3B4B5",
"o  c #A9A9A9",
"B. c #D9E9F2",
"q. c #D2E2D5",
";. c #C5D0D3",
"n. c #E0E4EE",
"9  c #E5E5E5",
"S  c #F4F4F4",
"a. c #F4F4F6",
"L  c #DEE1D3",
"1X c #66696C",
"e. c #F7FBED",
"9X c #A4A5BA",
"3X c #B3B4C9",
"T  c #D8C7C8",
">X c #C2C3D8",
"y  c #D6CDCA",
"NX c #C9B5B7",
">  c #BBBCBD",
"A. c #F2F7FB",
"2. c #EDF3FB",
"|. c #E3EBFB",
"7  c #D9DADB",
"'  c #DCE4DC",
"h  c #EDEDEE",
"lX c #D1C3C2",
"qX c #D9D7D7",
"|  c #FCFCFC",
"$. c #E3E2E7",
"8X c #A7A9BE",
"K  c #E6ECE8",
"t. c #DCE4E8",
"]  c #DBCBCC",
"G  c #878889",
"M  c #D6C4C6",
"y. c #D7E0EE",
"%X c #BED2FF",
"I. c #AAAAAB",
"L. c #C6DDF8",
":X c #DCE7FF",
"S. c #E9F6F7",
"ZX c #ADAE9E",
"7. c #E6E6E7",
">. c #CEDCCD",
"[. c #E6E6E8",
"h. c #E9F3F4",
",X c #BEC0D0",
"7X c #AFB1C6",
"v  c #E4E9E4",
"]. c #D1F2FE",
"HX c #C0AEB0",
"!. c #B7CEFD",
"D. c #C1D3F6",
"fX c #CBC9BD",
"wX c #BCBDBB",
"&  c #C3BBBD",
"N  c #D4C1C2",
"x. c #B2BEDD",
")  c #DADBDB",
"GX c #DADBDD",
"^  c #D0D0D1",
"p. c #ADB7D6",
";  c #DFDFE0",
"r  c #D3D4C5",
"@X c #88898C",
"KX c #A1A09D",
"n  c #DDDCD3",
"F  c #C4C5C7",
"/. c #C9C9C9",
"4  c #928E8E",
"O. c #BDC7C9",
"A  c #F1F2F2",
":  c #D8D8D9",
"U. c #D8D8DA",
"i. c #E7E7E8",
"1. c #F1F2F5",
"D  c #F6F6F6",
"XX c #C0E0FF",
"VX c #BFB8B1",
"vX c #A2B0AA",
"+X c #BBDCFF",
"zX c #C2C2B3",
"MX c #CECACB",
" X c #A9C6FF",
"b. c #E7E7EF",
"}. c #8B8D90",
"H. c #909193",
"j. c #E5EDF4",
"r. c #E0E3E3",
"{  c #AEAFB1",
"$  c #BDBEBF",
"m. c #EDF8F2",
"^. c #DBDCDD",
"q  c #C2C2C4",
",  c #D1D1D1",
"{. c #E0E0E1",
"4. c #F9FAFA",
" . c #FEFEFE",
"u  c #D3C5C6",
"1  c #70706C",
"PX c #BDB8BA",
"aX c #A2AAB4",
"N. c #E1F3F5",
"b  c #E3E4DB",
"a  c #848384",
"E  c #B6B7B9",
"O  c #ACACAD",
"=X c #CACDD2",
/* pixels */
"                        . X o O O . +                           ",
"              @ # $ o O % & * = + - ; : > X                     ",
"          , o < 1 < 2 3 3 4 5 > 6 7 8 9 0 0 6 X                 ",
"        q < w e r t y u i p a s d 7 f g h j k j l ;             ",
"      $ a z x c v b n m M N u B V C Z h j A S D D 9 ,           ",
"    F G H v J K b L P I U Y T R E o $ j A S D W Q ! ~ ^         ",
"  / ( E ) _ ` v ' L r r y ] ] R @ [ { } S D W Q |  .| f ..      ",
"  X.w o.O.` K +.' @.@.P P R #.#.$.%.{ $ D W Q |  . .! S ..      ",
"  &.*.=.-.;.v +.:.>.@.L ,.<.<.<.1.2.3.E W 4.|  . .! W 5.0 6.    ",
"7.o 8.1.9.%.0.' q.q.+.w.e.c f r.t.y.u.{ | |  . .! W S k i.*     ",
", 5 p.a.~ s.d.%.:.+.w.w.v f.g.h.j.k.l.[  . . .! W S k z.i.8 *   ",
"# d x.c.9.v.b.n.t.m.m.K c.J M.N.B.V.C.[ g | Q W S k z.0 7.: d   ",
") ( Z.v.1.~ v.=.j.A.f._ J g.S.N.k.D.n.{ h j F.S k z.0 7.G.+ q   ",
"; H.l.V.g.g.h.j.2.2.g.g.g.S.J.K.L.P.z.I.k i.S k z.0 9 ; U.^ Y.  ",
"T.G 6 R.E.N.J.J.W.S.W.W.W.J.K.Q.!.~.E - } i.k h } G.^.+ ^ Y./.  ",
"/.E H.=.(.)._.K.`.'.'.'.`.].).(.!.~ &.0 9 i.i.[.{.- # l Y.F . d ",
"/.+ }.z |. X.XXXoX].].OXQ.+X X(.A.@X) } G.{.#X$X6 # l Y.F 6.X d ",
"+ : * a { 2.%X X X.X.X.X X X&X1.w * /.{.9 6 *Xu.u.=XY.F 6.> 3.  ",
"-Xl @ ^ H.@X^.2.~.;X%X;X:XA.. < &...}.X 7.=Xu.>X,X,X<X<X3.E d   ",
"  H G.i.G.> a a ( 3.q C w < H.# - o { 1X( r.;.,X2X3X3Xo.o.z I.  ",
"  I.7.-X~ k } T.X.( w 4Xz + ; 5X5X$ z w < 4Xr.O.6X7X8.8X9X0XI.  ",
"  l G.-Xj c.D F.W Q j G.@ + qX: qX, e wX}.eXV 8 O.o.8X9XrX0X6   ",
"    d -Xj S F.tX|  . .D i.G.yXm M I uXiX6.eX[ [ ^.pXaXrXrXsX    ",
"    ..9 k S W !  . .| W D z.dXR T T I fXgX6.4X$ d 8 hXsX*.^     ",
"      jXc.F.Q |  .| tXD 5.z.i.kX] Y lXfXzXxXX cX# q 8 vXcX      ",
"      0 $ tX|  .bXW D 5.~ 0 G.qXy nXi i zXmXxX> { i.= 8 )       ",
"        ) /. .Q D S k ~ -XZ @ + MXi NXBXVXCXZXAXX.X.c.: G.      ",
"          ) wXD k z.-X0 } / 6 ^ /.i BXSXDXmXmXiXFXH 6.D GX{.    ",
"            -XI./ } 9 f G.) = * F & HXDXp JXZXe KXLXz F c.^     ",
"                * jX+ ^.- # * ..q PXDXp IXUXKX+     C O ( ^     ",
"                    : LXLXX.6.X > d UXs o @           , ^       ",
"                            * * *                               "
};
